<?xml version="1.0" standalone="no"?>
<!DOCTYPE svg PUBLIC "-//W3C//DTD SVG 1.1//EN" "http://www.w3.org/Graphics/SVG/1.1/DTD/svg11.dtd" >
<svg xmlns="http://www.w3.org/2000/svg" xmlns:xlink="http://www.w3.org/1999/xlink" version="1.1">
<metadata>
Created by FontForge 20201107 at Sun Apr  3 21:10:21 2022
 By Unknown
Copyright \(c\) 2022 by Typia Nesia Std. All rights reserved.
</metadata>
<defs>
<font id="Flaviotte-Regular" horiz-adv-x="598" >
  <font-face 
    font-family="Flaviotte"
    font-weight="400"
    font-stretch="normal"
    units-per-em="1000"
    panose-1="0 0 0 0 0 0 0 0 0 0"
    ascent="800"
    descent="-200"
    x-height="586"
    cap-height="750"
    bbox="-68 -240 944 989"
    underline-thickness="50"
    underline-position="-125"
    stemh="42"
    stemv="102"
    unicode-range="U+000D-FB06"
  />
<missing-glyph horiz-adv-x="250" 
 />
    <glyph glyph-name="fi" unicode="fi" horiz-adv-x="597" 
d="M303 806c90 0 118 -20 154 -51v-115l-110 153c-88 0 -144 -36 -144 -130v-77h308v-541l70 -38v-7h-242v7l69 38v521h-205v-521l70 -38v-7h-242v7l70 38v521h-86v20h86v46c0 118 92 174 202 174z" />
    <glyph glyph-name="fl" unicode="fl" horiz-adv-x="606" 
d="M521 806v-761l70 -38v-7h-242v7l70 38v698l-71 50c-44 0 -145 -26 -145 -130v-77h145v-20h-145v-521l70 -38v-7h-242v7l70 38v521h-86v20h86v40c0 135 135 180 206 180c52 0 107 -7 141 -15l43 15h30z" />
    <glyph glyph-name="f_f" unicode="ff" horiz-adv-x="712" 
d="M427 733c31 53 96 73 148 73c60 0 84 -5 122 -11v-115l-80 113c-45 0 -105 -16 -105 -90v-117h144v-20h-144v-521l70 -38v-7h-242v7l69 38v521h-206v-521l70 -38v-7h-242v7l70 38v521h-86v20h86v40c0 125 108 180 188 180c68 0 95 -5 138 -11v-62zM409 586v80
c0 14 2 26 5 37l-82 90c-54 0 -129 -36 -129 -130v-77h206z" />
    <glyph glyph-name="f_f_i" unicode="ffi" horiz-adv-x="895" 
d="M810 45l69 -38v-7h-242v7l70 38v521h-195v-521l70 -38v-7h-243v7l70 38v521h-206v-521l70 -38v-7h-242v7l70 38v521h-86v20h86v50c0 125 108 170 188 170c68 0 95 -5 138 -11v-63c41 54 125 74 193 74c78 0 115 -28 147 -51v-115l-111 153c-61 0 -144 -26 -144 -120v-87
h298v-541zM409 666c0 14 2 26 5 37l-82 90c-54 0 -129 -26 -129 -120v-87h206v80z" />
    <glyph glyph-name="f_f_l" unicode="ffl" horiz-adv-x="900" 
d="M820 806v-761l70 -38v-7h-243v7l70 38v668l-82 80c-52 0 -123 -36 -123 -120v-87h144v-20h-144v-521l70 -38v-7h-242v7l69 38v521h-206v-521l70 -38v-7h-242v7l70 38v521h-86v20h86v50c0 135 108 170 188 170c68 0 95 -5 138 -11v-63c35 54 108 74 166 74
c59 0 112 -7 150 -15l45 15h32zM409 586v80c0 14 2 26 5 37l-82 90c-54 0 -129 -16 -129 -120v-87h206z" />
    <glyph glyph-name="uniE007" unicode="fft" horiz-adv-x="969" 
d="M860 2l84 92v-87c-29 -7 -73 -18 -116 -18c-83 0 -122 50 -122 117v460h-195v-521l70 -38v-7h-242v7l70 38v521h-206v-521l70 -38v-7h-242v7l70 38v521h-86v20h86v50c0 135 111 170 193 170c70 0 98 -5 142 -11v-49c34 44 92 60 139 60c60 0 84 -5 122 -11v-115l-81 113
c-44 0 -105 -16 -105 -90v-117h146c97 0 124 71 131 135h21v-135h93v-20h-93v-519c0 -29 21 -45 51 -45zM409 586v80c0 17 3 32 7 46l-77 81c-58 0 -136 -16 -136 -120v-87h206z" />
    <glyph glyph-name=".notdef" horiz-adv-x="250" 
 />
    <glyph glyph-name="uni0000" horiz-adv-x="0" 
 />
    <glyph glyph-name="uni000D" unicode="&#xd;" horiz-adv-x="250" 
 />
    <glyph glyph-name="space" unicode=" " horiz-adv-x="275" 
 />
    <glyph glyph-name="B" unicode="B" horiz-adv-x="577" 
d="M405 431c82 -33 141 -105 141 -196c0 -140 -125 -232 -257 -235h-273v8l79 42v650l-79 42v8h266c99 0 196 -69 196 -174c0 -57 -29 -110 -73 -145zM391 518c0 85 -47 206 -148 206c-11 0 -22 -1 -33 -4v-267c39 -23 93 -38 139 -38h2c31 23 40 67 40 103zM389 36
c39 28 49 82 49 127c0 77 -36 190 -103 233c-23 -6 -46 -10 -70 -10c-18 0 -37 2 -55 7v-308c50 -30 118 -49 177 -49h2z" />
    <glyph glyph-name="A" unicode="A" horiz-adv-x="642" 
d="M557 50l79 -42v-8h-248v8l54 42l-42 130h-233l-42 -130l54 -42v-8h-174v8l79 42l232 710h7zM181 221h205l-103 316z" />
    <glyph glyph-name="C" unicode="C" horiz-adv-x="585" 
d="M401 52c42 54 49 149 49 216v14h100c-24 -130 -105 -292 -258 -292c-182 0 -249 231 -249 378c0 143 53 311 192 374c24 11 50 18 76 18c137 0 215 -141 238 -258h-128c-22 82 -63 209 -168 209c-13 0 -26 -2 -38 -7c-52 -59 -64 -157 -64 -233c0 -131 47 -422 222 -422
c9 0 18 1 28 3z" />
    <glyph glyph-name="D" unicode="D" horiz-adv-x="582" 
d="M294 750c173 0 244 -217 244 -359c0 -168 -77 -391 -278 -391h-250v8l79 42v650l-79 42v8h284zM381 60c42 51 50 149 50 212c0 125 -44 448 -214 448c-4 0 -9 0 -13 -1v-654c28 -13 60 -18 91 -18c28 0 59 4 86 13z" />
    <glyph glyph-name="E" unicode="E" horiz-adv-x="517" 
d="M402 42l92 128h7l-24 -170h-467v8l79 42v650l-79 42v8h442l25 -170h-8l-92 128h-173v-298h136l43 78h8v-199h-8l-43 79h-136v-326h198z" />
    <glyph glyph-name="F" unicode="F" horiz-adv-x="492" 
d="M10 0v8l79 42v650l-79 42v8h442l25 -170h-8l-92 128h-173v-298h137l42 78h8v-199h-8l-42 79h-137v-318l79 -42v-8h-273z" />
    <glyph glyph-name="G" unicode="G" horiz-adv-x="601" 
d="M580 377v-8l-47 -43v-326h-17l-53 89c-37 -61 -99 -100 -171 -100c-183 0 -249 237 -249 382c0 144 52 306 192 371c24 11 50 18 76 18c137 0 215 -138 238 -255h-128c-22 83 -64 206 -168 206c-12 0 -27 -2 -38 -7c-52 -58 -64 -155 -64 -230c0 -131 47 -426 222 -426
c8 0 19 0 28 3c14 18 37 70 37 92v183l-79 43v8h221z" />
    <glyph glyph-name="H" unicode="H" horiz-adv-x="646" 
d="M363 742v8h273v-8l-79 -42v-650l79 -42v-8h-273v8l79 42v325h-238v-325l78 -42v-8h-272v8l78 42l1 650l-79 42v8h272v-8l-78 -42v-283h238v283z" />
    <glyph glyph-name="I" unicode="I" horiz-adv-x="293" 
d="M10 742v8h273v-8l-79 -42v-650l79 -42v-8h-273v8l79 42v650z" />
    <glyph glyph-name="J" unicode="J" horiz-adv-x="295" 
d="M11 750h274v-8l-79 -43v-680c0 -123 -118 -165 -198 -165v24c49 0 82 32 82 98v723l-79 43v8z" />
    <glyph glyph-name="K" unicode="K" horiz-adv-x="625" 
d="M305 534l236 -484l78 -42v-8h-248v8l54 42l-197 394l-24 -28v-366l79 -42v-8h-273v8l79 42v650l-79 42v8h273v-8l-79 -42v-235l199 235l-29 42v8h174v-8l-103 -42z" />
    <glyph glyph-name="L" unicode="L" horiz-adv-x="482" 
d="M469 170h8l-25 -170h-442v8l79 42v650l-79 42v8h273v-8l-79 -42v-658h173z" />
    <glyph glyph-name="M" unicode="M" horiz-adv-x="730" 
d="M554 750h166v-8l-78 -42v-650l78 -43v-7h-273v7l79 43v479l-180 -540h-11l-205 576v-515l79 -43v-7h-199v7l79 43v650l-79 42v8h159l201 -577z" />
    <glyph glyph-name="N" unicode="N" horiz-adv-x="594" 
d="M386 742v8h198v-8l-78 -42v-710h-14l-362 607v-546l79 -42v-8h-199v8l79 42v649l-79 42v8h153l301 -504v454z" />
    <glyph glyph-name="O" unicode="O" 
d="M43 369c0 140 52 311 190 374c24 10 49 17 75 17c177 0 247 -225 247 -368c0 -153 -75 -402 -266 -402c-181 0 -246 235 -246 379zM397 53c42 53 49 150 49 215c0 117 -36 443 -196 443c-12 0 -26 -1 -37 -6c-51 -58 -64 -159 -64 -233c0 -130 47 -423 220 -423
c9 0 19 1 28 4z" />
    <glyph glyph-name="P" unicode="P" horiz-adv-x="562" 
d="M204 50l78 -42v-8h-272v8l78 42v649l-78 43v8h287c125 0 247 -91 247 -235c0 -156 -128 -257 -262 -257c-25 0 -52 4 -78 10v-218zM204 711v-367c59 -35 114 -47 183 -50c39 29 50 89 50 139c0 118 -60 284 -187 284c-15 0 -32 -1 -46 -6z" />
    <glyph glyph-name="Q" unicode="Q" 
d="M555 390c0 -153 -74 -401 -266 -401c-8 0 -16 0 -25 1l-9 -40c28 -38 81 -49 125 -49c55 0 110 15 157 40v-129c-27 -13 -57 -20 -87 -20c-121 0 -211 97 -231 212c-132 58 -176 233 -176 363c0 142 51 311 190 376c24 11 49 17 75 17c177 0 247 -227 247 -370zM213 705
c-51 -58 -64 -161 -64 -235c0 -131 47 -423 220 -423c9 0 19 1 28 4c42 53 49 150 49 215c0 117 -36 445 -196 445c-12 0 -26 -1 -37 -6z" />
    <glyph glyph-name="R" unicode="R" horiz-adv-x="607" 
d="M204 50l78 -42v-8h-272v8l78 42v649l-78 43v8h287c125 0 247 -85 247 -221c0 -95 -54 -168 -129 -208l110 -272l76 -41v-8h-247v8l54 42l-94 240c-11 -1 -22 -2 -32 -2c-25 0 -52 4 -78 10v-248zM204 711v-337c59 -35 114 -47 183 -50c39 28 50 84 50 131
c0 108 -60 262 -187 262c-15 0 -32 -1 -46 -6z" />
    <glyph glyph-name="S" unicode="S" horiz-adv-x="466" 
d="M126 716c-11 -12 -17 -27 -17 -43c0 -128 332 -344 332 -467c0 -69 -38 -174 -107 -203c-26 -11 -63 -13 -90 -13c-77 0 -156 18 -216 67v146h9c61 -91 158 -146 268 -146c21 0 47 1 66 10c6 7 9 14 9 24c0 108 -347 350 -347 505c0 56 33 120 85 146c28 13 69 18 100 18
c65 0 135 -12 182 -60v-137h-10c-46 87 -133 156 -237 156c-9 0 -18 -1 -27 -3z" />
    <glyph glyph-name="T" unicode="T" horiz-adv-x="562" 
d="M30 750h502l25 -170h-8l-92 128h-118v-658l78 -42v-8h-272v8l78 42v658h-118l-92 -128h-8z" />
    <glyph glyph-name="U" unicode="U" horiz-adv-x="640" 
d="M430 743v7h199v-7l-79 -43v-506c0 -143 -125 -204 -230 -204s-231 61 -231 204v506l-79 43v7h274v-7l-79 -43v-523c0 -97 81 -137 146 -137c68 0 158 43 158 144v516z" />
    <glyph glyph-name="V" unicode="V" horiz-adv-x="645" 
d="M84 699l-79 43v8h249v-8l-54 -43l160 -489l159 489l-55 43v8h175v-8l-79 -43l-233 -713h-7z" />
    <glyph glyph-name="W" unicode="W" horiz-adv-x="946" 
d="M766 750h175v-8l-79 -43l-234 -713h-7l-148 448l-146 -448h-7l-236 713l-79 43v8h249v-8l-54 -43l160 -489l93 286l-68 203l-78 43v8h249v-8l-55 -43l160 -489l159 489l-54 43v8z" />
    <glyph glyph-name="X" unicode="X" horiz-adv-x="644" 
d="M382 416l174 -366l79 -42v-8h-248v8l54 42l-147 307l-164 -307l54 -42v-8h-174v8l79 42l186 348l-144 302l-79 42v8h249v-8l-54 -42l115 -243l125 243l-54 42v8h174v-8l-79 -42z" />
    <glyph glyph-name="Y" unicode="Y" horiz-adv-x="609" 
d="M525 700l-162 -377v-273l79 -42v-8h-273v8l79 42v274l-164 376l-79 42v8h248v-8l-54 -42l145 -327l139 327l-54 42v8h174v-8z" />
    <glyph glyph-name="Z" unicode="Z" horiz-adv-x="492" 
d="M377 42l92 128h8l-25 -170h-437l325 708h-210l-76 -128h-8l25 170h404l-325 -708h227z" />
    <glyph glyph-name="period" unicode="." horiz-adv-x="177" 
d="M137 48c0 -29 -22 -53 -48 -53c-27 0 -49 24 -49 53c0 30 22 53 49 53c26 0 48 -23 48 -53z" />
    <glyph glyph-name="a" unicode="a" horiz-adv-x="515" 
d="M328 0v74c-17 -57 -72 -84 -125 -84c-112 0 -172 128 -172 233c0 85 52 137 124 169c39 17 96 21 136 21c12 0 24 -1 37 -2c-1 113 -21 165 -142 165l-121 -90v94c62 7 123 11 183 11c105 0 182 -61 182 -178v-368l69 -38v-7h-171zM328 204v161c-33 13 -71 18 -106 18
c-73 0 -104 -17 -104 -104c0 -81 41 -251 133 -251c10 0 20 1 29 5c36 38 48 119 48 171z" />
    <glyph glyph-name="b" unicode="b" horiz-adv-x="546" 
d="M311 596c140 0 199 -182 199 -298c0 -102 -41 -239 -140 -289c-20 -10 -43 -19 -66 -19c-102 0 -116 185 -123 255v-211l-91 -44h-11v746l-48 27v7c9 3 117 33 119 33h32v-292c17 55 73 85 129 85zM382 38c34 41 40 114 40 165c0 94 -31 356 -158 356
c-10 0 -21 -2 -30 -5c-41 -45 -51 -137 -51 -195c0 -104 39 -323 177 -323c7 0 15 0 22 2z" />
    <glyph glyph-name="c" unicode="c" horiz-adv-x="475" 
d="M361 215h79c-19 -103 -85 -225 -205 -225c-144 0 -199 175 -199 292c0 122 67 313 214 313c117 0 180 -135 194 -235h-100c-17 71 -51 198 -141 198c-9 0 -21 -1 -30 -5c-41 -45 -51 -135 -51 -192c0 -105 39 -326 177 -326c7 0 16 1 22 3c34 40 40 116 40 167v10z" />
    <glyph glyph-name="d" unicode="d" horiz-adv-x="546" 
d="M466 45l69 -38v-7h-172v72c-17 -55 -73 -82 -129 -82c-140 0 -199 167 -199 282c0 103 40 255 140 305c20 10 43 19 66 19c102 0 116 -200 122 -271v412l-48 27v7c28 10 122 39 151 33v-759zM311 32c41 44 51 121 51 179c0 105 -39 339 -177 339c-7 0 -16 0 -23 -3
c-34 -40 -40 -129 -40 -179c0 -94 31 -341 159 -341c9 0 21 1 30 5z" />
    <glyph glyph-name="e" unicode="e" horiz-adv-x="475" 
d="M444 361h-322c0 -105 39 -326 177 -326c8 0 15 1 22 3c35 42 40 115 40 168v10h80c-20 -103 -86 -226 -206 -226c-143 0 -199 178 -199 298c0 125 68 308 214 308c116 0 180 -130 194 -235zM339 381c-18 71 -51 178 -136 178c-10 0 -20 -2 -30 -5
c-38 -41 -49 -115 -51 -173h217z" />
    <glyph glyph-name="f" unicode="f" horiz-adv-x="403" 
d="M203 566v-521l70 -38v-7h-242v7l70 38v521h-86v20h86v80c0 105 95 140 166 140c59 0 83 -5 121 -11v-115l-80 113c-44 0 -105 -16 -105 -90v-117h145v-20h-145z" />
    <glyph glyph-name="g" unicode="g" horiz-adv-x="547" 
d="M452 596h15v-634c0 -112 -75 -202 -188 -202c-63 0 -126 4 -188 11v94l121 -90c137 0 152 84 152 201v100c-17 -55 -73 -85 -129 -85c-140 0 -199 170 -199 286c0 102 40 251 140 300c20 10 42 19 66 19c101 0 116 -195 122 -265v221zM312 33c41 45 51 125 51 183
c0 104 -39 334 -177 334c-7 0 -16 0 -23 -2c-34 -41 -40 -126 -40 -176c0 -94 31 -344 159 -344c9 0 21 2 30 5z" />
    <glyph glyph-name="h" unicode="h" horiz-adv-x="544" 
d="M464 45l69 -38v-7h-242v7l70 38v421c0 56 -28 93 -83 93c-56 0 -96 -50 -96 -108v-406l70 -38v-7h-242v7l70 38v691l-48 27v7l118 33h32v-280c35 52 82 74 144 74c102 0 138 -81 138 -148v-404z" />
    <glyph glyph-name="i" unicode="i" horiz-adv-x="273" 
d="M202 744c0 -36 -29 -65 -65 -65s-65 29 -65 65s29 65 65 65s65 -29 65 -65zM37 546v8l118 32h32v-541l70 -38v-7h-242v7l70 38v474z" />
    <glyph glyph-name="j" unicode="j" horiz-adv-x="263" 
d="M199 744c0 -36 -29 -65 -65 -65s-65 29 -65 65s29 65 65 65s65 -29 65 -65zM185 587v-657c0 -126 -80 -168 -165 -169v14c42 0 62 43 62 116v628l-48 27v8l119 33h32z" />
    <glyph glyph-name="k" unicode="k" horiz-adv-x="540" 
d="M384 541l-101 -128l181 -368l70 -38v-7h-220v7l48 38l-138 292l-42 -53v-239l70 -38v-7h-242v7l70 38v694l-48 27v8l118 32h32v-479l165 214l-26 38v7h155v-7z" />
    <glyph glyph-name="l" unicode="l" horiz-adv-x="263" 
d="M32 766v7l118 33h32v-761l70 -38v-7h-242v7l70 38v694z" />
    <glyph glyph-name="m" unicode="m" horiz-adv-x="830" 
d="M750 45l70 -38v-7h-243v7l70 38v419c0 57 -28 95 -83 95c-56 0 -95 -51 -95 -110v-404l69 -38v-7h-242v7l70 38v420c0 57 -28 94 -83 94c-56 0 -96 -51 -96 -110v-404l70 -38v-7h-242v7l70 38v474l-48 27v8l118 32h32v-73c35 59 82 84 144 84c74 0 113 -48 129 -102v1
c34 79 90 100 152 100c102 0 138 -82 138 -150v-401z" />
    <glyph glyph-name="n" unicode="n" horiz-adv-x="549" 
d="M469 45l69 -38v-7h-242v7l70 38v420c0 57 -28 94 -83 94c-56 0 -96 -51 -96 -110v-404l70 -38v-7h-242v7l70 38v474l-48 27v8l118 32h32v-73c35 59 82 83 144 83c102 0 138 -82 138 -150v-401z" />
    <glyph glyph-name="o" unicode="o" horiz-adv-x="484" 
d="M250 596c140 0 199 -173 199 -291c0 -126 -63 -315 -214 -315c-144 0 -199 178 -199 297c0 124 67 309 214 309zM321 38c34 41 41 118 41 170c0 96 -31 351 -159 351c-9 0 -21 -1 -30 -5c-41 -45 -51 -127 -51 -186c0 -107 39 -333 177 -333c7 0 16 1 22 3z" />
    <glyph glyph-name="p" unicode="p" horiz-adv-x="546" 
d="M182 501c18 55 74 95 130 95c139 0 198 -179 198 -295c0 -103 -40 -243 -139 -293c-21 -10 -43 -18 -67 -18c-101 0 -115 187 -122 258v-433l70 -38v-7h-242v7l70 38v704l-48 27v7c9 3 117 33 118 33h32v-85zM383 38c34 40 40 117 40 167c0 94 -31 354 -158 354
c-10 0 -21 -1 -30 -5c-41 -44 -52 -134 -52 -192c0 -105 40 -327 178 -327c7 0 15 0 22 3z" />
    <glyph glyph-name="q" unicode="q" horiz-adv-x="547" 
d="M235 -10c-140 0 -199 169 -199 284c0 103 40 254 140 304c20 10 43 18 66 18c102 0 116 -199 122 -270v226l92 44h11v-783l69 -38v-7h-242v7l70 38v260c-17 -54 -74 -83 -129 -83zM163 548c-34 -40 -40 -128 -40 -179c0 -93 31 -342 159 -342c9 0 21 1 30 5
c41 44 51 124 51 182c0 104 -39 337 -177 337c-7 0 -16 0 -23 -3z" />
    <glyph glyph-name="r" unicode="r" horiz-adv-x="415" 
d="M283 559c-56 0 -96 -51 -96 -110v-404l70 -38v-7h-242v7l70 38v474l-48 27v8l118 33h32v-74c35 59 82 84 144 84c28 0 49 -12 63 -21v-138z" />
    <glyph glyph-name="s" unicode="s" horiz-adv-x="391" 
d="M110 561c-9 -10 -14 -22 -14 -36c0 -103 265 -261 265 -370c0 -56 -32 -129 -86 -153c-24 -11 -81 -12 -108 -12c-43 0 -90 2 -132 13v115c61 -47 158 -72 235 -72c11 0 24 0 35 4c5 6 7 14 7 22c0 88 -277 271 -277 394c0 102 81 130 168 130c35 0 91 -4 125 -16v-105
c-55 51 -130 87 -206 87c-4 0 -8 0 -12 -1z" />
    <glyph glyph-name="t" unicode="t" horiz-adv-x="337" 
d="M229 4l83 91v-87c-28 -7 -72 -18 -115 -18c-83 0 -123 50 -123 117v459h-49v15c63 0 120 69 131 151h21v-146h94v-20h-94v-518c0 -29 22 -44 52 -44z" />
    <glyph glyph-name="u" unicode="u" horiz-adv-x="545" 
d="M359 0v62c-35 -51 -82 -72 -143 -72c-103 0 -138 81 -138 148v381l-48 27v7l118 33h32v-465c0 -56 29 -93 84 -93s95 50 95 108v383l-48 27v7l119 33h32v-541l69 -38v-7h-172z" />
    <glyph glyph-name="v" unicode="v" horiz-adv-x="537" 
d="M374 579v7h157v-7l-71 -38l-169 -541h-46l-169 541l-71 38v7h224v-7l-49 -38l120 -396l123 396z" />
    <glyph glyph-name="w" unicode="w" horiz-adv-x="796" 
d="M634 579v7h157v-7l-71 -38l-168 -541h-46l-108 345l-108 -345h-45l-169 540l-70 39v7h223v-7l-49 -39l118 -396l82 263l-42 133l-71 39v7h223v-7l-48 -39l118 -396l123 396z" />
    <glyph glyph-name="x" unicode="x" horiz-adv-x="537" 
d="M317 321l143 -275l71 -39v-7h-224v7l49 39l-116 222l-126 -222l48 -39v-7h-157v7l71 39l147 256l-125 239l-71 38v7h225v-7l-49 -38l96 -186l102 186l-49 38v7h157v-7l-71 -38z" />
    <glyph glyph-name="y" unicode="y" horiz-adv-x="537" 
d="M374 586h157v-7l-71 -38l-202 -653c-28 -97 -60 -126 -123 -126c-35 0 -61 4 -80 9v100h10l66 -86c45 0 74 11 123 215h-9l-169 541l-71 38v7h224v-7l-49 -38l119 -394l124 394l-49 38v7z" />
    <glyph glyph-name="z" unicode="z" horiz-adv-x="438" 
d="M421 154h7l-45 -154h-373l291 548h-195l-61 -116h-7l22 154h366l-291 -548h203z" />
    <glyph glyph-name="comma" unicode="," horiz-adv-x="177" 
d="M137 47c0 0 4 -89 -81 -133l-8 11s46 24 44 69c-38 -2 -52 25 -52 53c0 29 22 53 49 53c26 0 48 -24 48 -53z" />
    <glyph glyph-name="zero" unicode="0" horiz-adv-x="538" 
d="M280 760c166 0 215 -247 215 -374c0 -134 -57 -396 -233 -396c-168 0 -218 252 -218 378c0 130 41 310 168 375c22 10 44 17 68 17zM357 52c37 53 44 153 44 216c0 104 -30 443 -174 443c-10 0 -23 -2 -33 -6c-46 -59 -56 -163 -56 -235c0 -115 37 -421 194 -421
c8 0 17 0 25 3z" />
    <glyph glyph-name="one" unicode="1" horiz-adv-x="262" 
d="M32 724v8l118 32h32v-719l70 -38v-7h-242v7l70 38v652z" />
    <glyph glyph-name="two" unicode="2" horiz-adv-x="424" 
d="M296 81l86 114h7l-23 -195h-336v66c0 165 303 487 303 607c0 10 -3 20 -10 28c-11 3 -23 3 -35 3c-79 0 -169 -28 -234 -72v116c42 9 87 12 131 12c30 0 75 -1 104 -12c64 -25 100 -96 100 -162c0 -115 -170 -294 -241 -382c-27 -33 -69 -84 -84 -123h232z" />
    <glyph glyph-name="three" unicode="3" horiz-adv-x="430" 
d="M257 420c90 -26 147 -119 147 -210c0 -141 -116 -220 -248 -220c-35 0 -105 6 -136 21v99c61 -47 137 -77 214 -77c10 0 20 0 30 1c30 33 36 96 36 139c0 29 -2 59 -12 86c-24 65 -88 122 -160 122h-31v56c114 -5 184 80 184 189c0 25 -3 79 -24 95h-6
c-72 0 -146 -32 -202 -75v95c28 14 96 19 128 19c102 0 187 -55 187 -166c0 -68 -43 -148 -107 -174z" />
    <glyph glyph-name="four" unicode="4" horiz-adv-x="473" 
d="M378 154v-109l70 -38v-7h-241v7l69 37v110h-266l294 596h74v-515h60l-9 -81h-51zM102 235h174v357z" />
    <glyph glyph-name="five" unicode="5" horiz-adv-x="437" 
d="M92 550c18 2 36 4 55 4c157 0 265 -122 265 -275c0 -101 -56 -244 -161 -277c-29 -9 -60 -12 -91 -12c-32 0 -106 6 -135 21v121c69 -60 151 -98 243 -98c43 33 54 124 54 174c0 137 -85 310 -242 310c-11 0 -22 -1 -33 -3l37 235h273l21 -194h-6l-82 113h-179z" />
    <glyph glyph-name="six" unicode="6" horiz-adv-x="502" 
d="M135 492c38 43 96 68 154 68c128 0 173 -114 173 -226c0 -111 -34 -259 -138 -321c-23 -14 -49 -24 -77 -24c-160 0 -203 263 -203 380c0 151 59 391 251 391c36 0 105 -7 132 -32v-116c-49 54 -115 97 -192 97c-14 0 -33 -2 -47 -8c-41 -54 -52 -143 -53 -209zM337 51
c33 56 42 158 42 221c0 89 -24 234 -141 234c-40 0 -77 -21 -103 -50c1 -104 37 -409 180 -409c7 0 15 1 22 4z" />
    <glyph glyph-name="seven" unicode="7" horiz-adv-x="441" 
d="M42 750h379l-217 -750h-102l206 713h-213l-68 -113h-7z" />
    <glyph glyph-name="eight" unicode="8" horiz-adv-x="490" 
d="M325 420c89 -29 140 -112 140 -203c0 -129 -99 -227 -228 -227c-123 0 -212 94 -212 216c0 96 56 173 144 209c-72 25 -119 88 -119 165c0 110 100 181 204 181c102 0 186 -67 186 -172c0 -74 -47 -140 -115 -169zM187 735c-32 -25 -43 -68 -43 -107
c0 -88 48 -198 149 -198c6 0 13 0 19 2c27 23 34 68 34 102c0 78 -36 204 -133 204c-8 0 -18 0 -26 -3zM320 26c32 29 38 82 38 123c0 89 -37 255 -149 255c-10 0 -20 -1 -29 -4c-38 -32 -49 -88 -49 -135c0 -99 49 -241 168 -241c7 0 15 0 21 2z" />
    <glyph glyph-name="nine" unicode="9" horiz-adv-x="497" 
d="M251 760c160 0 202 -258 202 -375c0 -151 -59 -396 -251 -396c-35 0 -104 12 -132 37v117c49 -55 116 -103 192 -103c14 0 34 2 47 8c41 54 52 149 54 215c-38 -44 -97 -69 -154 -69c-128 0 -174 115 -174 226c0 112 34 254 138 316c24 14 50 24 78 24zM118 482
c0 -89 25 -234 141 -234c40 0 77 21 104 50c-2 105 -38 404 -180 404c-7 0 -16 -1 -23 -4c-32 -56 -42 -152 -42 -216z" />
    <glyph glyph-name="hyphen" unicode="-" horiz-adv-x="294" 
d="M40 292v58h215v-58h-215z" />
    <glyph glyph-name="plus" unicode="+" horiz-adv-x="386" 
d="M346 352v-59h-124v-124h-58v124h-124v59h124v123h58v-123h124z" />
    <glyph glyph-name="asterisk" unicode="*" horiz-adv-x="435" 
d="M396 674l-150 -72l150 -71l-33 -54l-127 99l21 -162h-78l21 162l-127 -99l-33 54l150 71l-150 72l33 54l127 -99l-21 174h78l-21 -174l127 99z" />
    <glyph glyph-name="asciicircum" unicode="^" horiz-adv-x="281" 
d="M84 521h-44l92 229h18l92 -229h-44l-57 148z" />
    <glyph glyph-name="tilde" unicode="&#x2dc;" horiz-adv-x="333" 
d="M225 750c47 0 69 -54 69 -101h-41c39 45 9 70 9 70c-3 3 -7 4 -11 4c-30 0 -74 -74 -142 -74c-51 0 -69 57 -69 101h41c-39 -45 -9 -70 -9 -70c5 -4 10 -6 15 -6c35 0 79 76 138 76z" />
    <glyph glyph-name="slash" unicode="/" horiz-adv-x="357" 
d="M269 750h59l-239 -750h-59z" />
    <glyph glyph-name="backslash" unicode="\" horiz-adv-x="357" 
d="M30 750h58l240 -750h-59z" />
    <glyph glyph-name="colon" unicode=":" horiz-adv-x="178" 
d="M137 403c0 -30 -22 -54 -48 -54c-27 0 -49 24 -49 54c0 29 22 53 49 53c26 0 48 -24 48 -53zM137 48c0 -29 -22 -53 -48 -53c-27 0 -49 24 -49 53c0 30 22 53 49 53c26 0 48 -23 48 -53z" />
    <glyph glyph-name="semicolon" unicode=";" horiz-adv-x="177" 
d="M137 403c0 -30 -22 -54 -48 -54c-27 0 -49 24 -49 54c0 29 22 53 49 53c26 0 48 -24 48 -53zM137 48c0 0 4 -89 -81 -133l-8 11s46 24 44 69c-38 -2 -52 25 -52 53c0 30 22 53 49 53c26 0 48 -23 48 -53z" />
    <glyph glyph-name="less" unicode="&#x3c;" horiz-adv-x="388" 
d="M348 462v-50l-239 -92l239 -92v-50l-328 132v20z" />
    <glyph glyph-name="equal" unicode="=" horiz-adv-x="386" 
d="M40 353v58h306v-58h-306zM40 229v59h306v-59h-306z" />
    <glyph glyph-name="greater" unicode="&#x3e;" horiz-adv-x="388" 
d="M40 412v50l328 -132v-20l-328 -132v50l239 92z" />
    <glyph glyph-name="exclam" unicode="!" horiz-adv-x="215" 
d="M50 750h116l-37 -572h-42zM163 53c0 -34 -25 -60 -55 -60s-55 26 -55 60c0 33 25 60 55 60s55 -27 55 -60z" />
    <glyph glyph-name="question" unicode="?" horiz-adv-x="419" 
d="M102 180v33c0 177 237 350 237 449c0 13 -5 26 -14 35c-13 4 -27 4 -40 4c-89 0 -191 -32 -265 -81v130c48 11 99 15 148 15c34 0 86 -2 118 -14c72 -28 113 -109 113 -183c0 -174 -246 -251 -246 -358v-30h-51zM181 55c0 -31 -23 -60 -55 -60s-55 29 -55 60s23 60 55 60
s55 -29 55 -60z" />
    <glyph glyph-name="quotesingle" unicode="'" horiz-adv-x="143" 
d="M81 572h-19l-22 178h63z" />
    <glyph glyph-name="quotedbl" unicode="&#x22;" horiz-adv-x="216" 
d="M81 572h-19l-22 178h63zM155 572h-20l-22 178h64z" />
    <glyph glyph-name="numbersign" unicode="#" horiz-adv-x="635" 
d="M597 524h-96l-36 -276h97l-8 -59h-96l-25 -189h-102l24 189h-127l-24 -189h-102l24 189h-96l8 59h96l36 276h-96l7 59h97l21 167h102l-21 -167h127l21 167h102l-21 -167h96zM363 248l36 276h-127l-36 -276h127z" />
    <glyph glyph-name="at" unicode="@" horiz-adv-x="864" 
d="M619 4c-130 0 -114 179 -114 263c-6 -67 -19 -248 -116 -248c-138 0 -197 189 -197 299c0 111 56 273 190 273c53 0 107 -29 123 -81v45l82 36h17v-474c0 -30 -3 -90 40 -90c5 0 19 12 22 15c52 51 65 159 65 227c0 230 -96 472 -359 472c-30 0 -68 -3 -97 -12
c-102 -81 -151 -287 -151 -410c0 -204 102 -420 333 -420c72 0 199 29 250 85l13 -18c-82 -82 -186 -152 -306 -152c-252 0 -369 258 -369 476c0 232 135 507 399 507c246 0 375 -263 375 -479c0 -118 -51 -314 -200 -314zM335 63c132 0 169 213 169 313
c0 56 -9 132 -49 175c-8 3 -19 4 -29 4c-121 0 -151 -238 -151 -328c0 -49 6 -123 39 -162c6 -2 14 -2 21 -2z" />
    <glyph glyph-name="dollar" unicode="$" horiz-adv-x="427" 
d="M222 465c84 -93 179 -190 179 -256c0 -89 -47 -175 -98 -197c-15 -7 -45 -12 -81 -12v-79h-27v80c-53 4 -116 21 -167 65v140h9c47 -73 105 -111 158 -128v237c-82 93 -167 193 -167 270c0 42 24 119 78 145c21 10 53 17 89 17v55h27v-56c51 -4 105 -22 142 -62v-132h-9
c-38 75 -88 115 -133 136v-223zM113 705c-43 -48 10 -126 82 -209v202c-36 12 -67 11 -82 7zM222 70c20 -4 38 -6 55 -6c28 0 50 5 60 10c34 39 -34 120 -115 211v-215z" />
    <glyph glyph-name="Euro" unicode="&#x20ac;" horiz-adv-x="663" 
d="M479 50c43 53 50 155 50 220v14h99c-23 -130 -104 -296 -257 -296c-164 0 -237 198 -247 333h-104v27h103c-1 28 -1 56 2 83h-105v27h109c19 130 108 307 261 307c136 0 215 -145 238 -262h-129c-21 83 -63 213 -168 213c-11 0 -26 -2 -37 -7c-52 -57 -64 -162 -64 -236
v-15h216v-27h-215c1 -28 4 -55 9 -83h206v-27h-201c19 -103 74 -274 206 -274c9 0 20 0 28 3z" />
    <glyph glyph-name="percent" unicode="%" horiz-adv-x="652" 
d="M266 693c54 -110 23 -273 -61 -317c-16 -9 -32 -13 -48 -13c-65 0 -120 70 -126 175c-7 102 31 186 97 217c13 6 26 9 40 9c38 0 76 -25 98 -71zM417 754h59l-241 -754h-59zM212 395c40 50 32 207 -12 296c-20 40 -46 48 -63 48c-11 0 -19 -3 -19 -3
c-32 -36 -43 -119 -24 -210c34 -158 118 -131 118 -131zM596 319c53 -110 22 -273 -62 -317c-16 -9 -32 -13 -48 -13c-65 0 -120 70 -126 175c-7 101 31 186 97 217c13 6 27 9 40 9c39 0 76 -25 99 -71zM542 21c39 50 31 208 -12 296c-20 40 -47 48 -64 48
c-11 0 -19 -3 -19 -3c-32 -36 -43 -119 -24 -210c34 -158 119 -131 119 -131z" />
    <glyph glyph-name="ampersand" unicode="&#x26;" horiz-adv-x="675" 
d="M665 274c-32 -55 -63 -101 -96 -139c24 -48 39 -94 39 -136h-51c0 26 -13 55 -35 87c-85 -78 -174 -106 -274 -98c-127 10 -241 144 -221 277c16 103 75 163 158 187c-28 40 -45 79 -45 114c0 93 55 161 113 183c24 10 69 14 119 14c49 0 104 -4 146 -14v-130
c-93 61 -202 81 -265 81c-17 0 -30 -2 -39 -4c-58 -60 159 -260 294 -457c24 38 47 82 68 133zM254 15c0 0 99 28 201 152c-69 73 -159 152 -225 228c-31 -23 -55 -56 -70 -97c-23 -65 3 -213 94 -283z" />
    <glyph glyph-name="parenleft" unicode="(" horiz-adv-x="306" 
d="M202 740c-50 -41 -29 -263 -29 -439c0 -220 -17 -428 29 -468c0 0 16 -7 39 -7c14 0 32 3 50 12v-68c-214 19 -241 369 -241 526c0 235 38 417 173 488c22 11 45 17 68 19v-68c-18 9 -36 12 -50 12c-23 0 -39 -7 -39 -7z" />
    <glyph glyph-name="parenright" unicode=")" horiz-adv-x="307" 
d="M105 740c0 0 -16 7 -39 7c-15 0 -32 -3 -51 -12v68c23 -2 46 -8 68 -19c135 -69 173 -252 173 -486c0 -266 -61 -446 -173 -507c-22 -12 -45 -19 -68 -21v68c19 -9 36 -12 51 -12c23 0 39 7 39 7c46 41 28 249 28 469c0 176 21 398 -28 438z" />
    <glyph glyph-name="braceleft" unicode="{" horiz-adv-x="294" 
d="M58 665c0 41 28 96 92 121c27 11 76 16 129 17v-76c-64 41 -120 39 -120 39c-86 -77 93 -212 93 -314c0 -65 -64 -137 -154 -153c98 -20 154 -92 154 -162c0 -110 -179 -255 -93 -331c0 0 56 -2 120 39v-76c-53 1 -102 6 -129 17c-64 25 -92 84 -92 127
c0 95 100 180 100 276c0 62 -71 90 -112 91h-30v39h28c41 0 114 27 114 86c0 91 -100 170 -100 260z" />
    <glyph glyph-name="bar" unicode="|" horiz-adv-x="260" 
d="M102 -230v1033h59v-1033h-59z" />
    <glyph glyph-name="braceright" unicode="}" horiz-adv-x="293" 
d="M235 665c0 -89 -99 -169 -99 -259c0 -59 73 -86 114 -86h28v-39h-30c-42 -1 -112 -30 -112 -92c0 -96 99 -181 99 -275c0 -44 -27 -102 -91 -127c-27 -11 -76 -16 -129 -17v75c64 -41 120 -39 120 -39c85 77 -93 222 -93 331c0 70 56 143 154 163
c-91 16 -154 87 -154 152c0 102 178 237 93 315c0 0 -56 2 -120 -40v77c53 -1 102 -7 129 -17c64 -26 91 -81 91 -122z" />
    <glyph glyph-name="bracketleft" unicode="[" horiz-adv-x="260" 
d="M240 766h-56v-959h56v-37h-160v1033h160v-37z" />
    <glyph glyph-name="bracketright" unicode="]" horiz-adv-x="261" 
d="M76 766h-56v37h160v-1033h-160v37h56v959z" />
    <glyph glyph-name="quoteleft" unicode="&#x2018;" horiz-adv-x="177" 
d="M89 617c-27 0 -49 24 -49 53c0 0 -4 89 81 133l8 -11s-46 -24 -44 -69c38 2 52 -25 52 -53c0 -29 -22 -53 -48 -53z" />
    <glyph glyph-name="quoteright" unicode="&#x2019;" horiz-adv-x="177" 
d="M89 793c26 0 48 -24 48 -53c0 0 4 -89 -81 -133l-8 10s46 24 44 70c-38 -3 -52 24 -52 53s22 53 49 53z" />
    <glyph glyph-name="quotedblleft" unicode="&#x201c;" horiz-adv-x="287" 
d="M199 617c-27 0 -48 24 -48 53c0 0 -5 89 81 133l7 -11s-45 -24 -43 -69c38 2 52 -25 52 -53c0 -29 -22 -53 -49 -53zM40 670c0 0 -4 89 81 133l8 -11s-46 -24 -44 -69c38 2 52 -24 52 -53s-22 -53 -48 -53c-27 0 -49 24 -49 53z" />
    <glyph glyph-name="quotedblright" unicode="&#x201d;" horiz-adv-x="287" 
d="M89 793c26 0 48 -24 48 -53c0 0 4 -89 -81 -133l-8 10s46 24 44 70c-38 -3 -52 24 -52 53s22 53 49 53zM248 740c0 0 4 -89 -81 -133l-8 10s46 24 44 70c-38 -3 -52 24 -52 53s21 53 48 53s49 -24 49 -53z" />
    <glyph glyph-name="quotesinglbase" unicode="&#x201a;" horiz-adv-x="177" 
d="M89 106c26 0 48 -23 48 -53c0 0 4 -89 -81 -133l-8 11s46 24 44 69c-38 -2 -52 25 -52 53c0 30 22 53 49 53z" />
    <glyph glyph-name="quotedblbase" unicode="&#x201e;" horiz-adv-x="287" 
d="M89 106c26 0 48 -23 48 -53c0 0 4 -89 -81 -133l-8 11s46 24 44 69c-38 -2 -52 25 -52 53c0 30 22 53 49 53zM248 53c0 0 4 -89 -81 -133l-8 11s46 24 44 69c-38 -2 -52 25 -52 53c0 30 21 53 48 53s49 -23 49 -53z" />
    <glyph glyph-name="underscore" unicode="_" horiz-adv-x="412" 
d="M40 -60v37h333v-37h-333z" />
    <glyph glyph-name="cent" unicode="&#xa2;" horiz-adv-x="486" 
d="M352 449c-13 57 -40 145 -93 176v-497c15 -7 31 -10 48 -10c7 0 15 0 22 3c35 41 41 119 41 171v11h82c-20 -101 -80 -216 -193 -229v-74h-27v73c-141 7 -196 179 -196 297c0 121 60 284 196 306v74h27v-72c118 -3 182 -127 197 -229h-104zM232 143v494c-8 2 -16 3 -24 3
c-10 0 -22 -1 -31 -5c-42 -45 -53 -126 -53 -185c0 -94 28 -247 108 -307z" />
    <glyph glyph-name="sterling" unicode="&#xa3;" horiz-adv-x="534" 
d="M492 170h8l-25 -170h-450v42h36c72 0 135 54 141 125c5 51 -9 103 -30 154h-144v27h133c-11 28 -25 55 -37 83h-96v26h83c-25 56 -46 109 -46 158c0 44 26 104 87 131c29 13 84 18 142 18c67 0 138 -7 171 -19v-120c-137 110 -305 100 -305 100c-51 -54 17 -151 71 -268
h223v-26h-211c11 -27 21 -55 28 -83h183v-27h-177c5 -26 7 -52 5 -79c-4 -66 -35 -156 -136 -200h254z" />
    <glyph glyph-name="yen" unicode="&#xa5;" horiz-adv-x="609" 
d="M429 750h174v-8l-78 -42l-154 -358h145v-27h-152v-82h152v-27h-152l-1 -156l79 -42v-8h-273v8l79 42l-1 156h-155v27h155v82h-155v27h148l-156 358l-79 42v8h248v-8l-54 -42l145 -327l139 327l-54 42v8z" />
    <glyph glyph-name="guilsinglleft" unicode="&#x2039;" horiz-adv-x="388" 
d="M348 228v-50l-328 132v20l328 132v-50l-239 -92z" />
    <glyph glyph-name="guilsinglright" unicode="&#x203a;" horiz-adv-x="388" 
d="M40 178v50l239 92l-239 92v50l328 -132v-20z" />
    <glyph glyph-name="guillemotleft" unicode="&#xab;" horiz-adv-x="585" 
d="M109 320l239 -92v-50l-328 132v20l328 132v-50zM545 228v-50l-328 132v20l328 132v-50l-239 -92z" />
    <glyph glyph-name="guillemotright" unicode="&#xbb;" horiz-adv-x="585" 
d="M237 228l239 92l-239 92v50l328 -132v-20l-328 -132v50zM40 178v50l239 92l-239 92v50l328 -132v-20z" />
    <glyph glyph-name="asciitilde" unicode="~" horiz-adv-x="450" 
d="M310 395c68 0 101 -76 101 -142h-60c56 63 13 98 13 98c-5 5 -11 7 -17 7c-43 0 -108 -105 -206 -105c-75 0 -101 80 -101 142h59c-56 -63 -13 -98 -13 -98c7 -6 15 -8 23 -8c51 0 115 106 201 106z" />
    <glyph glyph-name="breve" unicode="&#x2d8;" horiz-adv-x="295" 
d="M210 901h45c-8 -56 -54 -99 -111 -99c-53 0 -98 39 -104 99h51c0 -1 1 -3 1 -5c28 -91 98 -76 98 -76c17 15 23 47 20 81z" />
    <glyph glyph-name="dotaccent" unicode="&#x2d9;" horiz-adv-x="156" 
d="M116 845c0 -23 -17 -42 -38 -42s-38 19 -38 42s17 41 38 41s38 -18 38 -41z" />
    <glyph glyph-name="ring" unicode="&#x2da;" horiz-adv-x="234" 
d="M97 984c8 3 16 5 24 5c22 0 43 -13 57 -34c32 -49 13 -128 -36 -149c-9 -4 -18 -6 -27 -6c-39 0 -71 33 -75 82c-3 48 19 87 57 102zM147 815c23 24 18 98 -8 139c-18 31 -48 21 -48 21c-18 -17 -25 -56 -13 -98c19 -74 69 -62 69 -62z" />
    <glyph glyph-name="hungarumlaut" unicode="&#x2dd;" horiz-adv-x="359" 
d="M262 935l58 -49l-133 -86l-7 3zM122 935l58 -49l-133 -86l-7 3z" />
    <glyph glyph-name="ogonek" unicode="&#x2db;" horiz-adv-x="221" 
d="M91 -145c0 0 50 0 91 37v-46c-6 -3 -29 -8 -52 -8c-12 0 -23 1 -33 4c-41 13 -64 50 -55 90c11 52 70 79 118 88v-14c-36 -12 -66 -36 -79 -69c-15 -36 -10 -68 10 -82z" />
    <glyph glyph-name="caron" unicode="&#x2c7;" horiz-adv-x="342" 
d="M40 914l7 3l125 -58l124 58l7 -3l-105 -112h-53z" />
    <glyph glyph-name="dotlessi" unicode="&#x131;" horiz-adv-x="273" 
d="M37 546v8l118 32h32v-541l70 -38v-7h-242v7l70 38v474z" />
    <glyph glyph-name="grave" unicode="`" horiz-adv-x="219" 
d="M98 935l82 -132l-7 -3l-133 87z" />
    <glyph glyph-name="circumflex" unicode="&#x2c6;" horiz-adv-x="342" 
d="M303 805l-7 -3l-125 58l-124 -58l-7 3l105 112h53z" />
    <glyph glyph-name="dieresis" unicode="&#xa8;" horiz-adv-x="375" 
d="M336 841c0 -23 -17 -42 -38 -42s-38 19 -38 42s17 41 38 41s38 -18 38 -41zM116 841c0 -23 -17 -42 -38 -42s-38 19 -38 42s17 41 38 41s38 -18 38 -41z" />
    <glyph glyph-name="acute" unicode="&#xb4;" horiz-adv-x="219" 
d="M40 803l82 132l58 -48l-133 -87z" />
    <glyph glyph-name="cedilla" unicode="&#xb8;" horiz-adv-x="225" 
d="M185 -95c4 -41 -20 -85 -60 -97c-11 -3 -23 -5 -35 -5c-23 0 -44 5 -50 8v37c47 -36 91 -28 91 -28c20 14 26 53 15 90c-9 29 -31 47 -60 47c-8 0 -16 -1 -25 -4l8 57h20l-6 -40c9 3 18 4 27 4c39 0 71 -26 75 -69z" />
    <glyph glyph-name="uniE000" unicode="&#xe000;" horiz-adv-x="493" 
d="M247 591c104 0 181 -59 181 -173v-428h-13l-70 171c-10 -93 -45 -172 -143 -172c-112 0 -172 130 -172 235c0 85 51 137 120 169c37 17 97 21 138 21c12 0 25 -1 38 -2c-2 113 -30 164 -146 164l-116 -94v94c62 7 123 15 183 15zM326 205v161c-33 13 -70 18 -105 18
c-73 0 -104 -17 -104 -104c0 -81 41 -253 132 -253c10 0 20 1 29 5c36 38 48 121 48 173z" />
    <glyph glyph-name="uniE001" unicode="&#xe001;" horiz-adv-x="555" 
d="M181 511c18 55 74 85 130 85c140 0 199 -182 199 -298c0 -103 -41 -240 -140 -289c-21 -11 -43 -19 -66 -19c-108 0 -118 207 -125 280l-85 -280h-15v746l-48 27v7c9 3 117 33 118 33h32v-292zM382 38c34 40 40 114 40 165c0 94 -31 356 -158 356c-10 0 -21 -1 -30 -5
c-41 -44 -51 -137 -51 -195c0 -105 39 -324 177 -324c7 0 15 1 22 3z" />
    <glyph glyph-name="uniE002" unicode="&#xe002;" horiz-adv-x="535" 
d="M452 594l15 1v-632c0 -109 -75 -198 -188 -198c-63 0 -126 4 -188 10v94l121 -89c137 0 152 83 152 198v99c-17 -55 -73 -85 -129 -85c-140 0 -199 170 -199 285c0 103 40 250 139 299c21 10 44 19 67 19c102 0 116 -194 122 -264zM312 34c41 44 51 125 51 182
c0 105 -39 333 -177 333c-7 0 -16 0 -23 -2c-34 -41 -40 -124 -40 -174c0 -94 31 -344 159 -344c9 0 21 1 30 5z" />
    <glyph glyph-name="uniE003" unicode="&#xe003;" horiz-adv-x="262" 
d="M198 744c0 -36 -29 -65 -65 -65s-65 29 -65 65s29 65 65 65s65 -29 65 -65zM33 554l119 33h32v-679c0 -110 -95 -147 -166 -147c-40 0 -64 3 -86 6v100l75 -90c45 0 74 33 74 93v649l-48 27v8z" />
    <glyph glyph-name="uniE004" unicode="&#xe004;" horiz-adv-x="546" 
d="M234 -10c-140 0 -199 172 -199 290c0 105 40 248 139 298c21 10 44 18 67 18c102 0 116 -196 122 -270l87 269h16v-780l69 -38v-7h-242v7l70 38v258c-17 -54 -74 -83 -129 -83zM162 548c-34 -40 -40 -119 -40 -171c0 -96 31 -350 159 -350c9 0 21 1 30 5
c41 45 51 127 51 186c0 106 -39 333 -177 333c-7 0 -16 0 -23 -3z" />
    <glyph glyph-name="uniE005" unicode="&#xe005;" horiz-adv-x="529" 
d="M368 586h155v-7l-70 -38l-236 -758l-71 32c42 39 100 131 119 195h-23l-166 531l-70 38v7h220v-7l-48 -38l117 -387l121 387l-48 38v7z" />
    <glyph glyph-name="uniE006" unicode="&#xe006;" horiz-adv-x="786" 
d="M626 48c0 -31 24 -45 52 -45l83 92v-87c-38 -9 -76 -18 -115 -18c-73 0 -123 40 -123 117v459h-49v15c54 0 94 36 94 91c0 52 -40 93 -99 93c-83 0 -121 -64 -121 -135c0 -74 20 -87 52 -146c21 -37 32 -80 38 -122h-100c-17 75 -51 198 -141 198c-9 0 -21 -1 -30 -5
c-41 -45 -51 -126 -51 -185c0 -107 39 -335 177 -335c7 0 15 1 22 3c34 40 41 118 40 169v10h79c-19 -103 -85 -227 -205 -227c-144 0 -199 180 -199 299c0 123 67 308 214 308c37 0 71 -18 100 -47c-13 29 -20 60 -20 92c0 84 55 154 146 154c89 0 153 -49 153 -134
c0 -26 -6 -57 -25 -76h122v-20h-94v-518z" />
    <glyph glyph-name="s_t" unicode="&#xfb06;" horiz-adv-x="709" 
d="M601 3l83 92v-88c-38 -9 -76 -18 -115 -18c-73 0 -123 40 -123 117v460h-49v15c54 0 94 36 94 91c0 52 -39 93 -97 93c-64 0 -105 -48 -105 -105c0 -31 10 -60 29 -83v-107c-61 60 -133 92 -219 92c-8 -10 -13 -23 -13 -36c0 -103 265 -258 265 -369
c0 -57 -32 -131 -86 -155c-25 -11 -81 -12 -108 -12c-43 0 -90 1 -132 12v116c61 -48 158 -72 235 -72c11 0 24 0 35 3c5 6 7 14 7 23c0 90 -277 272 -277 394c0 103 81 130 168 130c33 0 66 -4 99 -15c-17 25 -27 55 -27 85c0 73 54 130 130 130c87 0 151 -49 151 -134
c0 -26 -6 -57 -25 -76h122v-20h-94v-519c0 -30 24 -44 52 -44z" />
    <glyph glyph-name="uniE008" unicode="&#xe008;" horiz-adv-x="638" 
d="M478 46c0 -28 21 -44 51 -44l84 102v-97c-29 -7 -73 -18 -115 -18c-84 0 -123 49 -123 115v462h-198v-520c0 -28 22 -44 52 -44l83 102v-97c-28 -7 -72 -18 -115 -18c-83 0 -123 49 -123 115v461h-49v16c102 0 125 125 131 193h21v-188h149c86 0 122 74 131 145h21v-145
h93v-20h-93v-520z" />
    <glyph glyph-name="AE" unicode="&#xc6;" horiz-adv-x="857" 
d="M741 42l92 128h8l-25 -170h-466v8l78 42v130h-245l-58 -130l54 -42v-8h-174v8l79 42l290 655l-68 37v8h486l24 -170h-7l-92 128h-173v-298h136l43 78h7v-198h-7l-43 78h-136v-326h197zM201 221h227v487h-12z" />
    <glyph glyph-name="OE" unicode="&#x152;" horiz-adv-x="818" 
d="M702 39l93 129h7l-24 -171h-484c-128 0 -237 130 -250 329c-12 190 61 348 189 407c31 14 62 17 93 17h427l25 -170h-8l-92 128h-174v-300h137l43 79h7v-199h-7l-43 79h-137v-328h198zM168 304c35 -165 121 -251 220 -251v628c-46 15 -89 19 -121 19c-33 0 -54 -4 -54 -4
c-61 -66 -82 -223 -45 -392z" />
    <glyph glyph-name="ae" unicode="&#xe6;" horiz-adv-x="794" 
d="M639 40c29 35 42 104 40 182h80c-19 -105 -87 -230 -207 -230c-70 0 -133 50 -169 132h-12c-23 -87 -60 -106 -90 -119c-21 -9 -43 -14 -65 -14c-62 0 -122 36 -153 108c-60 138 -40 241 97 300c49 22 148 23 191 20c-2 99 -18 161 -153 161l-122 -90v94
c43 5 129 11 189 11c74 0 132 -25 163 -72c35 39 85 72 139 72c118 0 182 -125 196 -227h-325c0 -41 4 -85 14 -130c53 -239 187 -198 187 -198zM656 388c-17 68 -52 169 -136 169c-19 0 -31 -5 -31 -5c-30 -32 -48 -92 -51 -164h218zM351 209v163c-34 12 -78 19 -117 19
c-38 0 -71 -6 -86 -18c-44 -34 -40 -150 19 -272c30 -60 71 -72 99 -72c19 0 32 5 32 5c29 28 53 94 53 175z" />
    <glyph glyph-name="oe" unicode="&#x153;" horiz-adv-x="810" 
d="M655 36c29 34 42 104 41 182h80c-20 -104 -87 -231 -208 -231c-66 0 -125 44 -162 116c-35 -63 -92 -116 -168 -116c-103 0 -190 107 -201 265c-10 153 50 280 155 327c20 9 41 14 61 14c71 0 131 -53 161 -114c34 59 98 114 169 114c118 0 183 -127 197 -229h-327
c0 -40 5 -85 15 -130c53 -239 187 -198 187 -198zM672 385c-17 68 -52 170 -137 170c-18 0 -30 -5 -30 -5c-31 -33 -49 -93 -52 -165h219zM325 36c63 75 50 313 -19 447c-31 60 -73 72 -101 72c-18 0 -30 -5 -30 -5c-50 -54 -67 -180 -37 -316c53 -239 187 -198 187 -198z
" />
    <glyph glyph-name="Eth" unicode="&#xd0;" horiz-adv-x="582" 
d="M10 742v8h284c173 0 244 -217 244 -359c0 -168 -77 -391 -278 -391h-250v8l79 42v291h-40v59h40v300zM264 342h-60v-277c28 -13 60 -18 91 -18c28 0 59 4 86 13c42 51 50 149 50 212c0 125 -44 448 -214 448c-4 0 -9 0 -13 -1v-319h60v-58z" />
    <glyph glyph-name="Lslash" unicode="&#x141;" horiz-adv-x="482" 
d="M10 0v8l79 42v200l-18 -11l-31 50l49 30v381l-79 42v8h273v-8l-79 -42v-309l19 11l31 -50l-50 -30v-280h173l92 128h8l-25 -170h-442z" />
    <glyph glyph-name="Oslash" unicode="&#xd8;" 
d="M163 39c-87 76 -120 227 -120 330c0 140 52 311 190 374c24 11 49 17 75 17c29 0 56 -6 79 -17l2 7h59l-13 -39c84 -74 120 -217 120 -319c0 -153 -75 -402 -266 -402c-29 0 -55 7 -78 17l-2 -7h-59zM149 472c0 -73 15 -197 58 -292l150 467c-28 39 -62 64 -107 64
c-11 0 -26 -1 -37 -6c-51 -58 -64 -159 -64 -233zM246 116c31 -41 71 -67 123 -67c9 0 19 1 28 4c42 53 49 150 49 215c0 68 -12 205 -53 309z" />
    <glyph glyph-name="dcroat" unicode="&#x111;" horiz-adv-x="546" 
d="M35 272c0 103 40 255 140 305c20 10 43 19 66 19c102 0 116 -200 122 -271v295h-70v59h70v58l-48 27v7c28 10 122 39 151 33v-125h41v-59h-41v-575l69 -38v-7h-172v72c-17 -55 -73 -82 -129 -82c-140 0 -199 167 -199 282zM122 368c0 -94 31 -341 159 -341c9 0 21 1 30 5
c41 44 51 122 51 179c0 105 -39 339 -177 339c-7 0 -16 0 -23 -2c-34 -41 -40 -130 -40 -180z" />
    <glyph glyph-name="lslash" unicode="&#x142;" horiz-adv-x="263" 
d="M10 0v7l70 38v209l-24 -15l-31 50l55 34v416l-48 27v7l118 33h32v-419l26 15l31 -50l-57 -35v-272l70 -38v-7h-242z" />
    <glyph glyph-name="oslash" unicode="&#xf8;" horiz-adv-x="484" 
d="M36 287c0 124 67 309 214 309c23 0 43 -4 61 -12l4 12h47l-11 -37c68 -57 98 -170 98 -254c0 -126 -63 -315 -214 -315c-23 0 -44 4 -62 13l-4 -13h-47l12 37c-70 59 -98 174 -98 260zM169 138l119 372c-22 30 -50 49 -85 49c-9 0 -21 -1 -30 -5
c-41 -45 -51 -127 -51 -186c0 -60 12 -156 47 -230zM200 87c25 -31 58 -52 99 -52c7 0 15 1 22 3c34 41 41 118 41 170c0 55 -11 165 -45 247z" />
    <glyph glyph-name="Dcroat" unicode="&#x110;" horiz-adv-x="582" 
d="M10 742v8h284c173 0 244 -217 244 -359c0 -168 -77 -391 -278 -391h-250v8l79 42v291h-40v59h40v300zM264 342h-60v-277c28 -13 60 -18 91 -18c28 0 59 4 86 13c42 51 50 149 50 212c0 125 -44 448 -214 448c-4 0 -9 0 -13 -1v-319h60v-58z" />
    <glyph glyph-name="Thorn" unicode="&#xde;" horiz-adv-x="566" 
d="M487 542c107 -106 44 -278 -119 -324c-31 -9 -61 -13 -91 -13c-25 0 -50 3 -73 9v-164l79 -42v-8h-273v8l79 42v650l-54 42v8h169v-143c25 5 50 7 75 7c82 0 161 -25 208 -72zM383 238c55 37 48 160 30 215c-31 98 -112 116 -168 116c-17 0 -31 -1 -41 -3v-283
c84 -47 179 -45 179 -45z" />
    <glyph glyph-name="thorn" unicode="&#xfe;" horiz-adv-x="546" 
d="M468 486c86 -156 35 -407 -97 -474c-25 -13 -47 -18 -66 -18c-80 0 -108 103 -123 259v-431l70 -38v-7h-242v7l70 38v922l-48 27v7l118 33h32v-305c19 55 74 85 130 85c60 0 118 -37 156 -105zM383 42c62 73 49 309 -19 441c-30 59 -71 71 -99 71c-18 0 -30 -5 -30 -5
c-50 -53 -67 -177 -37 -312c52 -236 185 -195 185 -195z" />
    <glyph glyph-name="germandbls" unicode="&#xdf;" horiz-adv-x="596" 
d="M562 291c21 -141 -54 -254 -163 -290c-27 -9 -52 -13 -72 -13c-41 0 -69 13 -85 22v114c120 -106 174 -89 174 -89c41 46 44 183 26 247c-29 102 -93 181 -173 181h-25v60h25c68 0 102 52 102 132c0 50 -25 132 -101 132c-49 0 -88 -25 -88 -96v-692h-172v8l70 40v579
c0 145 100 179 190 179c149 0 203 -88 203 -153c0 -81 -46 -136 -141 -158c121 -10 213 -92 230 -203z" />
    <glyph glyph-name="eth" unicode="&#xf0;" horiz-adv-x="504" 
d="M481 724l-106 -40c48 -93 72 -227 65 -357c-10 -202 -93 -337 -193 -337c-24 0 -50 8 -75 24c-68 44 -132 150 -132 321c0 164 82 227 167 227c55 0 112 -27 147 -69c-1 57 -9 124 -22 175l-108 -41l-6 23l108 40c-7 22 -15 39 -23 49c0 0 -22 12 -58 12
c-43 0 -105 -17 -171 -95v117c15 15 69 37 126 37c79 0 125 -39 164 -105l111 42zM314 52c24 43 48 120 40 232c-11 176 -104 238 -168 238c-20 0 -37 -6 -48 -17c-17 -40 -13 -148 -3 -201c39 -227 119 -255 158 -255c13 0 21 3 21 3z" />
    <glyph glyph-name="igrave" unicode="&#xec;" horiz-adv-x="273" 
d="M73 776l82 -132l-7 -3l-133 86zM37 546v8l118 32h32v-541l70 -38v-7h-242v7l70 38v474z" />
    <glyph glyph-name="iacute" unicode="&#xed;" horiz-adv-x="273" 
d="M88 644l82 132l58 -49l-132 -86zM37 546v8l118 32h32v-541l70 -38v-7h-242v7l70 38v474z" />
    <glyph glyph-name="icircumflex" unicode="&#xee;" horiz-adv-x="273" 
d="M268 637l-7 -4l-125 59l-124 -59l-7 4l105 112h53zM37 546v8l118 32h32v-541l70 -38v-7h-242v7l70 38v474z" />
    <glyph glyph-name="idieresis" unicode="&#xef;" horiz-adv-x="273" 
d="M284 690c0 -23 -17 -42 -38 -42s-38 19 -38 42s17 42 38 42s38 -19 38 -42zM65 690c0 -23 -17 -42 -38 -42s-38 19 -38 42s17 42 38 42s38 -19 38 -42zM37 546v8l118 32h32v-541l70 -38v-7h-242v7l70 38v474z" />
    <glyph glyph-name="Agrave" unicode="&#xc0;" horiz-adv-x="642" 
d="M239 945l81 -132l-7 -3l-132 87zM557 50l79 -42v-8h-248v8l54 42l-42 130h-233l-42 -130l54 -42v-8h-174v8l79 42l232 710h7zM181 221h205l-103 316z" />
    <glyph glyph-name="Aacute" unicode="&#xc1;" horiz-adv-x="642" 
d="M314 813l82 132l58 -48l-132 -87zM557 50l79 -42v-8h-248v8l54 42l-42 130h-233l-42 -130l54 -42v-8h-174v8l79 42l232 710h7zM181 221h205l-103 316z" />
    <glyph glyph-name="Acircumflex" unicode="&#xc2;" horiz-adv-x="642" 
d="M449 815l-7 -3l-125 58l-125 -58l-6 3l105 112h53zM557 50l79 -42v-8h-248v8l54 42l-42 130h-233l-42 -130l54 -42v-8h-174v8l79 42l232 710h7zM181 221h205l-103 316z" />
    <glyph glyph-name="Atilde" unicode="&#xc3;" horiz-adv-x="642" 
d="M375 908c47 0 69 -54 69 -101h-41c39 45 9 70 9 70c-3 3 -7 4 -11 4c-30 0 -74 -74 -142 -74c-51 0 -69 57 -69 101h41c-38 -45 -9 -69 -9 -69c5 -4 10 -6 16 -6c35 0 78 75 137 75zM557 50l79 -42v-8h-248v8l54 42l-42 130h-233l-42 -130l54 -42v-8h-174v8l79 42
l232 710h7zM181 221h205l-103 316z" />
    <glyph glyph-name="Adieresis" unicode="&#xc4;" horiz-adv-x="642" 
d="M466 871c0 -23 -17 -42 -38 -42s-38 19 -38 42s17 41 38 41s38 -18 38 -41zM246 871c0 -23 -17 -42 -38 -42s-38 19 -38 42s17 41 38 41s38 -18 38 -41zM557 50l79 -42v-8h-248v8l54 42l-42 130h-233l-42 -130l54 -42v-8h-174v8l79 42l232 710h7zM181 221h205l-103 316z
" />
    <glyph glyph-name="Aring" unicode="&#xc5;" horiz-adv-x="642" 
d="M297 973c7 3 15 4 22 4c23 0 45 -12 59 -34c32 -49 13 -127 -36 -148c-10 -4 -19 -6 -28 -6c-38 0 -70 33 -74 82c-3 47 19 87 57 102zM346 804c24 23 19 97 -7 139c-18 30 -48 20 -48 20c-18 -16 -25 -55 -14 -98c20 -74 69 -61 69 -61zM557 50l79 -42v-8h-248v8l54 42
l-42 130h-233l-42 -130l54 -42v-8h-174v8l79 42l232 710h7zM181 221h205l-103 316z" />
    <glyph glyph-name="Egrave" unicode="&#xc8;" horiz-adv-x="517" 
d="M177 935l82 -132l-8 -3l-132 87zM402 42l92 128h7l-24 -170h-467v8l79 42v650l-79 42v8h442l25 -170h-8l-92 128h-173v-298h136l43 78h8v-199h-8l-43 79h-136v-326h198z" />
    <glyph glyph-name="Eacute" unicode="&#xc9;" horiz-adv-x="517" 
d="M253 803l82 132l58 -48l-133 -87zM402 42l92 128h7l-24 -170h-467v8l79 42v650l-79 42v8h442l25 -170h-8l-92 128h-173v-298h136l43 78h8v-199h-8l-43 79h-136v-326h198z" />
    <glyph glyph-name="Ecircumflex" unicode="&#xca;" horiz-adv-x="517" 
d="M387 805l-7 -3l-125 58l-124 -58l-7 3l105 112h53zM402 42l92 128h7l-24 -170h-467v8l79 42v650l-79 42v8h442l25 -170h-8l-92 128h-173v-298h136l43 78h8v-199h-8l-43 79h-136v-326h198z" />
    <glyph glyph-name="Edieresis" unicode="&#xcb;" horiz-adv-x="517" 
d="M404 861c0 -23 -17 -42 -38 -42s-38 19 -38 42s17 41 38 41s38 -18 38 -41zM185 861c0 -23 -17 -42 -38 -42s-39 19 -39 42s18 41 39 41s38 -18 38 -41zM402 42l92 128h7l-24 -170h-467v8l79 42v650l-79 42v8h442l25 -170h-8l-92 128h-173v-298h136l43 78h8v-199h-8
l-43 79h-136v-326h198z" />
    <glyph glyph-name="Igrave" unicode="&#xcc;" horiz-adv-x="293" 
d="M69 935l82 -132l-7 -3l-133 87zM10 742v8h273v-8l-79 -42v-650l79 -42v-8h-273v8l79 42v650z" />
    <glyph glyph-name="Iacute" unicode="&#xcd;" horiz-adv-x="293" 
d="M145 803l82 132l58 -48l-133 -87zM10 742v8h273v-8l-79 -42v-650l79 -42v-8h-273v8l79 42v650z" />
    <glyph glyph-name="Icircumflex" unicode="&#xce;" horiz-adv-x="293" 
d="M279 805l-7 -3l-124 58l-125 -58l-7 3l105 112h53zM10 742v8h273v-8l-79 -42v-650l79 -42v-8h-273v8l79 42v650z" />
    <glyph glyph-name="Idieresis" unicode="&#xcf;" horiz-adv-x="293" 
d="M297 861c0 -23 -18 -42 -39 -42s-38 19 -38 42s17 41 38 41s39 -18 39 -41zM77 861c0 -23 -17 -42 -38 -42s-38 19 -38 42s17 41 38 41s38 -18 38 -41zM10 742v8h273v-8l-79 -42v-650l79 -42v-8h-273v8l79 42v650z" />
    <glyph glyph-name="Ntilde" unicode="&#xd1;" horiz-adv-x="594" 
d="M354 898c47 0 69 -54 69 -101h-41c39 45 9 70 9 70c-3 3 -7 4 -11 4c-30 0 -74 -74 -142 -74c-51 0 -69 57 -69 101h41c-38 -45 -9 -69 -9 -69c5 -4 10 -6 16 -6c35 0 78 75 137 75zM386 742v8h198v-8l-78 -42v-710h-14l-362 607v-546l79 -42v-8h-199v8l79 42v649l-79 42
v8h153l301 -504v454z" />
    <glyph glyph-name="Ograve" unicode="&#xd2;" 
d="M221 945l82 -132l-7 -3l-133 87zM43 369c0 140 52 311 190 374c24 10 49 17 75 17c177 0 247 -225 247 -368c0 -153 -75 -402 -266 -402c-181 0 -246 235 -246 379zM397 53c42 53 49 150 49 215c0 117 -36 443 -196 443c-12 0 -26 -1 -37 -6c-51 -58 -64 -159 -64 -233
c0 -130 47 -423 220 -423c9 0 19 1 28 4z" />
    <glyph glyph-name="Oacute" unicode="&#xd3;" 
d="M297 813l82 132l58 -48l-133 -87zM43 369c0 140 52 311 190 374c24 10 49 17 75 17c177 0 247 -225 247 -368c0 -153 -75 -402 -266 -402c-181 0 -246 235 -246 379zM397 53c42 53 49 150 49 215c0 117 -36 443 -196 443c-12 0 -26 -1 -37 -6c-51 -58 -64 -159 -64 -233
c0 -130 47 -423 220 -423c9 0 19 1 28 4z" />
    <glyph glyph-name="Ocircumflex" unicode="&#xd4;" 
d="M431 815l-7 -3l-124 58l-125 -58l-7 3l105 112h53zM43 369c0 140 52 311 190 374c24 10 49 17 75 17c177 0 247 -225 247 -368c0 -153 -75 -402 -266 -402c-181 0 -246 235 -246 379zM397 53c42 53 49 150 49 215c0 117 -36 443 -196 443c-12 0 -26 -1 -37 -6
c-51 -58 -64 -159 -64 -233c0 -130 47 -423 220 -423c9 0 19 1 28 4z" />
    <glyph glyph-name="Otilde" unicode="&#xd5;" 
d="M358 908c46 0 69 -54 69 -101h-41c38 45 9 70 9 70c-4 3 -7 4 -11 4c-31 0 -75 -74 -142 -74c-52 0 -69 57 -69 101h41c-39 -45 -9 -69 -9 -69c5 -4 10 -6 16 -6c35 0 78 75 137 75zM43 369c0 140 52 311 190 374c24 10 49 17 75 17c177 0 247 -225 247 -368
c0 -153 -75 -402 -266 -402c-181 0 -246 235 -246 379zM397 53c42 53 49 150 49 215c0 117 -36 443 -196 443c-12 0 -26 -1 -37 -6c-51 -58 -64 -159 -64 -233c0 -130 47 -423 220 -423c9 0 19 1 28 4z" />
    <glyph glyph-name="Odieresis" unicode="&#xd6;" 
d="M448 871c0 -23 -17 -42 -38 -42s-38 19 -38 42s17 41 38 41s38 -18 38 -41zM229 871c0 -23 -17 -42 -38 -42s-38 19 -38 42s17 41 38 41s38 -18 38 -41zM43 369c0 140 52 311 190 374c24 10 49 17 75 17c177 0 247 -225 247 -368c0 -153 -75 -402 -266 -402
c-181 0 -246 235 -246 379zM397 53c42 53 49 150 49 215c0 117 -36 443 -196 443c-12 0 -26 -1 -37 -6c-51 -58 -64 -159 -64 -233c0 -130 47 -423 220 -423c9 0 19 1 28 4z" />
    <glyph glyph-name="Scaron" unicode="&#x160;" horiz-adv-x="466" 
d="M104 923l7 4l124 -58l125 58l7 -4l-105 -112h-53zM126 716c-11 -12 -17 -27 -17 -43c0 -128 332 -344 332 -467c0 -69 -38 -174 -107 -203c-26 -11 -63 -13 -90 -13c-77 0 -156 18 -216 67v146h9c61 -91 158 -146 268 -146c21 0 47 1 66 10c6 7 9 14 9 24
c0 108 -347 350 -347 505c0 56 33 120 85 146c28 13 69 18 100 18c65 0 135 -12 182 -60v-137h-10c-46 87 -133 156 -237 156c-9 0 -18 -1 -27 -3z" />
    <glyph glyph-name="Ugrave" unicode="&#xd9;" horiz-adv-x="640" 
d="M242 935l81 -132l-7 -3l-132 87zM430 743v7h199v-7l-79 -43v-506c0 -143 -125 -204 -230 -204s-231 61 -231 204v506l-79 43v7h274v-7l-79 -43v-523c0 -97 81 -137 146 -137c68 0 158 43 158 144v516z" />
    <glyph glyph-name="Uacute" unicode="&#xda;" horiz-adv-x="640" 
d="M318 803l81 132l58 -48l-132 -87zM430 743v7h199v-7l-79 -43v-506c0 -143 -125 -204 -230 -204s-231 61 -231 204v506l-79 43v7h274v-7l-79 -43v-523c0 -97 81 -137 146 -137c68 0 158 43 158 144v516z" />
    <glyph glyph-name="Ucircumflex" unicode="&#xdb;" horiz-adv-x="640" 
d="M452 805l-7 -3l-125 58l-124 -58l-7 3l105 112h53zM430 743v7h199v-7l-79 -43v-506c0 -143 -125 -204 -230 -204s-231 61 -231 204v506l-79 43v7h274v-7l-79 -43v-523c0 -97 81 -137 146 -137c68 0 158 43 158 144v516z" />
    <glyph glyph-name="Udieresis" unicode="&#xdc;" horiz-adv-x="640" 
d="M469 861c0 -23 -17 -42 -38 -42s-38 19 -38 42s17 41 38 41s38 -18 38 -41zM249 861c0 -23 -17 -42 -38 -42s-38 19 -38 42s17 41 38 41s38 -18 38 -41zM430 743v7h199v-7l-79 -43v-506c0 -143 -125 -204 -230 -204s-231 61 -231 204v506l-79 43v7h274v-7l-79 -43v-523
c0 -97 81 -137 146 -137c68 0 158 43 158 144v516z" />
    <glyph glyph-name="Ydieresis" unicode="&#x178;" horiz-adv-x="609" 
d="M451 861c0 -23 -17 -42 -38 -42s-38 19 -38 42s17 41 38 41s38 -18 38 -41zM232 861c0 -23 -17 -42 -38 -42s-38 19 -38 42s17 41 38 41s38 -18 38 -41zM525 700l-162 -377v-273l79 -42v-8h-273v8l79 42v274l-164 376l-79 42v8h248v-8l-54 -42l145 -327l139 327l-54 42v8
h174v-8z" />
    <glyph glyph-name="Yacute" unicode="&#xdd;" horiz-adv-x="609" 
d="M300 803l82 132l58 -48l-133 -87zM525 700l-162 -377v-273l79 -42v-8h-273v8l79 42v274l-164 376l-79 42v8h248v-8l-54 -42l145 -327l139 327l-54 42v8h174v-8z" />
    <glyph glyph-name="Zcaron" unicode="&#x17d;" horiz-adv-x="492" 
d="M114 914l7 3l125 -58l124 58l7 -3l-105 -112h-53zM377 42l92 128h8l-25 -170h-437l325 708h-210l-76 -128h-8l25 170h404l-325 -708h227z" />
    <glyph glyph-name="agrave" unicode="&#xe0;" horiz-adv-x="515" 
d="M185 776l81 -132l-7 -3l-132 87zM328 0v74c-17 -57 -72 -84 -125 -84c-112 0 -172 128 -172 233c0 85 52 137 124 169c39 17 96 21 136 21c12 0 24 -1 37 -2c-1 113 -21 165 -142 165l-121 -90v94c62 7 123 11 183 11c105 0 182 -61 182 -178v-368l69 -38v-7h-171z
M328 204v161c-33 13 -71 18 -106 18c-73 0 -104 -17 -104 -104c0 -81 41 -251 133 -251c10 0 20 1 29 5c36 38 48 119 48 171z" />
    <glyph glyph-name="aacute" unicode="&#xe1;" horiz-adv-x="515" 
d="M261 644l81 132l58 -48l-132 -87zM328 0v74c-17 -57 -72 -84 -125 -84c-112 0 -172 128 -172 233c0 85 52 137 124 169c39 17 96 21 136 21c12 0 24 -1 37 -2c-1 113 -21 165 -142 165l-121 -90v94c62 7 123 11 183 11c105 0 182 -61 182 -178v-368l69 -38v-7h-171z
M328 204v161c-33 13 -71 18 -106 18c-73 0 -104 -17 -104 -104c0 -81 41 -251 133 -251c10 0 20 1 29 5c36 38 48 119 48 171z" />
    <glyph glyph-name="acircumflex" unicode="&#xe2;" horiz-adv-x="515" 
d="M395 646l-7 -3l-125 58l-124 -58l-7 3l105 112h53zM328 0v74c-17 -57 -72 -84 -125 -84c-112 0 -172 128 -172 233c0 85 52 137 124 169c39 17 96 21 136 21c12 0 24 -1 37 -2c-1 113 -21 165 -142 165l-121 -90v94c62 7 123 11 183 11c105 0 182 -61 182 -178v-368
l69 -38v-7h-171zM328 204v161c-33 13 -71 18 -106 18c-73 0 -104 -17 -104 -104c0 -81 41 -251 133 -251c10 0 20 1 29 5c36 38 48 119 48 171z" />
    <glyph glyph-name="atilde" unicode="&#xe3;" horiz-adv-x="515" 
d="M321 739c47 0 69 -54 69 -101h-41c39 45 9 70 9 70c-3 3 -7 4 -11 4c-30 0 -74 -74 -142 -74c-51 0 -69 57 -69 101h41c-38 -45 -9 -69 -9 -69c5 -4 10 -6 16 -6c35 0 78 75 137 75zM328 0v74c-17 -57 -72 -84 -125 -84c-112 0 -172 128 -172 233c0 85 52 137 124 169
c39 17 96 21 136 21c12 0 24 -1 37 -2c-1 113 -21 165 -142 165l-121 -90v94c62 7 123 11 183 11c105 0 182 -61 182 -178v-368l69 -38v-7h-171zM328 204v161c-33 13 -71 18 -106 18c-73 0 -104 -17 -104 -104c0 -81 41 -251 133 -251c10 0 20 1 29 5c36 38 48 119 48 171z
" />
    <glyph glyph-name="adieresis" unicode="&#xe4;" horiz-adv-x="515" 
d="M412 702c0 -23 -17 -42 -38 -42s-38 19 -38 42s17 41 38 41s38 -18 38 -41zM192 702c0 -23 -17 -42 -38 -42s-38 19 -38 42s17 41 38 41s38 -18 38 -41zM328 0v74c-17 -57 -72 -84 -125 -84c-112 0 -172 128 -172 233c0 85 52 137 124 169c39 17 96 21 136 21
c12 0 24 -1 37 -2c-1 113 -21 165 -142 165l-121 -90v94c62 7 123 11 183 11c105 0 182 -61 182 -178v-368l69 -38v-7h-171zM328 204v161c-33 13 -71 18 -106 18c-73 0 -104 -17 -104 -104c0 -81 41 -251 133 -251c10 0 20 1 29 5c36 38 48 119 48 171z" />
    <glyph glyph-name="aring" unicode="&#xe5;" horiz-adv-x="515" 
d="M243 804c7 3 15 4 22 4c23 0 45 -12 59 -34c32 -49 13 -127 -36 -148c-10 -4 -19 -6 -28 -6c-38 0 -70 33 -74 82c-3 47 19 87 57 102zM292 635c24 23 19 97 -7 139c-18 30 -48 20 -48 20c-18 -16 -25 -55 -13 -98c19 -74 68 -61 68 -61zM328 0v74
c-17 -57 -72 -84 -125 -84c-112 0 -172 128 -172 233c0 85 52 137 124 169c39 17 96 21 136 21c12 0 24 -1 37 -2c-1 113 -21 165 -142 165l-121 -90v94c62 7 123 11 183 11c105 0 182 -61 182 -178v-368l69 -38v-7h-171zM328 204v161c-33 13 -71 18 -106 18
c-73 0 -104 -17 -104 -104c0 -81 41 -251 133 -251c10 0 20 1 29 5c36 38 48 119 48 171z" />
    <glyph glyph-name="ccedilla" unicode="&#xe7;" horiz-adv-x="475" 
d="M344 -94c4 -41 -20 -85 -60 -97c-11 -3 -23 -5 -35 -5c-23 0 -44 5 -50 8v37c47 -36 91 -28 91 -28c20 14 26 53 15 90c-9 29 -31 47 -60 47c-8 0 -16 -1 -25 -4l5 36c-136 8 -189 178 -189 292c0 122 67 313 214 313c117 0 180 -135 194 -235h-100
c-17 71 -51 198 -141 198c-9 0 -21 -1 -30 -5c-41 -45 -51 -135 -51 -192c0 -105 39 -326 177 -326c7 0 16 1 22 3c34 40 40 116 40 166v11h80c-20 -100 -82 -218 -196 -225l-3 -19c9 3 18 4 27 4c39 0 71 -26 75 -69z" />
    <glyph glyph-name="egrave" unicode="&#xe8;" horiz-adv-x="475" 
d="M161 781l81 -132l-7 -3l-132 87zM444 361h-322c0 -105 39 -326 177 -326c8 0 15 1 22 3c35 42 40 115 40 168v10h80c-20 -103 -86 -226 -206 -226c-143 0 -199 178 -199 298c0 125 68 308 214 308c116 0 180 -130 194 -235zM339 381c-18 71 -51 178 -136 178
c-10 0 -20 -2 -30 -5c-38 -41 -49 -115 -51 -173h217z" />
    <glyph glyph-name="eacute" unicode="&#xe9;" horiz-adv-x="475" 
d="M236 649l82 132l58 -48l-132 -87zM444 361h-322c0 -105 39 -326 177 -326c8 0 15 1 22 3c35 42 40 115 40 168v10h80c-20 -103 -86 -226 -206 -226c-143 0 -199 178 -199 298c0 125 68 308 214 308c116 0 180 -130 194 -235zM339 381c-18 71 -51 178 -136 178
c-10 0 -20 -2 -30 -5c-38 -41 -49 -115 -51 -173h217z" />
    <glyph glyph-name="ecircumflex" unicode="&#xea;" horiz-adv-x="475" 
d="M371 651l-7 -3l-125 58l-125 -58l-6 3l105 112h53zM444 361h-322c0 -105 39 -326 177 -326c8 0 15 1 22 3c35 42 40 115 40 168v10h80c-20 -103 -86 -226 -206 -226c-143 0 -199 178 -199 298c0 125 68 308 214 308c116 0 180 -130 194 -235zM339 381
c-18 71 -51 178 -136 178c-10 0 -20 -2 -30 -5c-38 -41 -49 -115 -51 -173h217z" />
    <glyph glyph-name="edieresis" unicode="&#xeb;" horiz-adv-x="475" 
d="M388 707c0 -23 -17 -42 -38 -42s-38 19 -38 42s17 41 38 41s38 -18 38 -41zM168 707c0 -23 -17 -42 -38 -42s-38 19 -38 42s17 41 38 41s38 -18 38 -41zM444 361h-322c0 -105 39 -326 177 -326c8 0 15 1 22 3c35 42 40 115 40 168v10h80c-20 -103 -86 -226 -206 -226
c-143 0 -199 178 -199 298c0 125 68 308 214 308c116 0 180 -130 194 -235zM339 381c-18 71 -51 178 -136 178c-10 0 -20 -2 -30 -5c-38 -41 -49 -115 -51 -173h217z" />
    <glyph glyph-name="ntilde" unicode="&#xf1;" horiz-adv-x="549" 
d="M336 734c47 0 69 -54 69 -101h-41c39 45 9 70 9 70c-3 3 -7 4 -11 4c-30 0 -74 -74 -142 -74c-51 0 -69 57 -69 101h41c-38 -45 -9 -69 -9 -69c5 -4 10 -6 16 -6c35 0 78 75 137 75zM469 45l69 -38v-7h-242v7l70 38v420c0 57 -28 94 -83 94c-56 0 -96 -51 -96 -110v-404
l70 -38v-7h-242v7l70 38v474l-48 27v8l118 32h32v-73c35 59 82 83 144 83c102 0 138 -82 138 -150v-401z" />
    <glyph glyph-name="ograve" unicode="&#xf2;" horiz-adv-x="484" 
d="M164 781l81 -132l-7 -3l-132 87zM250 596c140 0 199 -173 199 -291c0 -126 -63 -315 -214 -315c-144 0 -199 178 -199 297c0 124 67 309 214 309zM321 38c34 41 41 118 41 170c0 96 -31 351 -159 351c-9 0 -21 -1 -30 -5c-41 -45 -51 -127 -51 -186
c0 -107 39 -333 177 -333c7 0 16 1 22 3z" />
    <glyph glyph-name="oacute" unicode="&#xf3;" horiz-adv-x="484" 
d="M239 649l82 132l58 -48l-132 -87zM250 596c140 0 199 -173 199 -291c0 -126 -63 -315 -214 -315c-144 0 -199 178 -199 297c0 124 67 309 214 309zM321 38c34 41 41 118 41 170c0 96 -31 351 -159 351c-9 0 -21 -1 -30 -5c-41 -45 -51 -127 -51 -186
c0 -107 39 -333 177 -333c7 0 16 1 22 3z" />
    <glyph glyph-name="ocircumflex" unicode="&#xf4;" horiz-adv-x="484" 
d="M374 651l-7 -3l-125 58l-125 -58l-6 3l105 112h53zM250 596c140 0 199 -173 199 -291c0 -126 -63 -315 -214 -315c-144 0 -199 178 -199 297c0 124 67 309 214 309zM321 38c34 41 41 118 41 170c0 96 -31 351 -159 351c-9 0 -21 -1 -30 -5c-41 -45 -51 -127 -51 -186
c0 -107 39 -333 177 -333c7 0 16 1 22 3z" />
    <glyph glyph-name="otilde" unicode="&#xf5;" horiz-adv-x="484" 
d="M300 744c47 0 69 -54 69 -101h-41c39 45 9 70 9 70c-3 3 -7 4 -11 4c-30 0 -74 -74 -142 -74c-51 0 -69 57 -69 101h41c-38 -45 -9 -69 -9 -69c5 -4 10 -6 16 -6c35 0 78 75 137 75zM250 596c140 0 199 -173 199 -291c0 -126 -63 -315 -214 -315
c-144 0 -199 178 -199 297c0 124 67 309 214 309zM321 38c34 41 41 118 41 170c0 96 -31 351 -159 351c-9 0 -21 -1 -30 -5c-41 -45 -51 -127 -51 -186c0 -107 39 -333 177 -333c7 0 16 1 22 3z" />
    <glyph glyph-name="odieresis" unicode="&#xf6;" horiz-adv-x="484" 
d="M391 707c0 -23 -17 -42 -38 -42s-38 19 -38 42s17 41 38 41s38 -18 38 -41zM171 707c0 -23 -17 -42 -38 -42s-38 19 -38 42s17 41 38 41s38 -18 38 -41zM250 596c140 0 199 -173 199 -291c0 -126 -63 -315 -214 -315c-144 0 -199 178 -199 297c0 124 67 309 214 309z
M321 38c34 41 41 118 41 170c0 96 -31 351 -159 351c-9 0 -21 -1 -30 -5c-41 -45 -51 -127 -51 -186c0 -107 39 -333 177 -333c7 0 16 1 22 3z" />
    <glyph glyph-name="Ccedilla" unicode="&#xc7;" horiz-adv-x="585" 
d="M402 -95c4 -41 -19 -85 -60 -97c-11 -3 -23 -5 -35 -5c-23 0 -44 5 -50 8v37c47 -36 91 -28 91 -28c20 14 26 53 15 90c-9 29 -31 47 -60 47c-8 0 -16 -1 -25 -4l6 37c-176 7 -241 233 -241 378c0 143 53 311 192 374c24 11 50 18 76 18c137 0 215 -141 238 -258h-128
c-22 82 -63 209 -168 209c-13 0 -26 -2 -38 -7c-52 -59 -64 -157 -64 -233c0 -131 47 -422 222 -422c9 0 18 0 28 3c42 54 49 149 49 216v14h100c-24 -127 -101 -284 -247 -292l-3 -20c9 3 18 4 27 4c39 0 71 -26 75 -69z" />
    <glyph glyph-name="scaron" unicode="&#x161;" horiz-adv-x="391" 
d="M67 759l7 4l124 -58l125 58l7 -4l-105 -112h-53zM110 561c-9 -10 -14 -22 -14 -36c0 -103 265 -261 265 -370c0 -56 -32 -129 -86 -153c-24 -11 -81 -12 -108 -12c-43 0 -90 2 -132 13v115c61 -47 158 -72 235 -72c11 0 24 0 35 4c5 6 7 14 7 22c0 88 -277 271 -277 394
c0 102 81 130 168 130c35 0 91 -4 125 -16v-105c-55 51 -130 87 -206 87c-4 0 -8 0 -12 -1z" />
    <glyph glyph-name="ugrave" unicode="&#xf9;" horiz-adv-x="545" 
d="M202 771l82 -132l-7 -3l-133 87zM359 0v62c-35 -51 -82 -72 -143 -72c-103 0 -138 81 -138 148v381l-48 27v7l118 33h32v-465c0 -56 29 -93 84 -93s95 50 95 108v383l-48 27v7l119 33h32v-541l69 -38v-7h-172z" />
    <glyph glyph-name="uacute" unicode="&#xfa;" horiz-adv-x="545" 
d="M278 639l82 132l58 -48l-133 -87zM359 0v62c-35 -51 -82 -72 -143 -72c-103 0 -138 81 -138 148v381l-48 27v7l118 33h32v-465c0 -56 29 -93 84 -93s95 50 95 108v383l-48 27v7l119 33h32v-541l69 -38v-7h-172z" />
    <glyph glyph-name="ucircumflex" unicode="&#xfb;" horiz-adv-x="545" 
d="M412 641l-7 -3l-124 58l-125 -58l-7 3l105 112h53zM359 0v62c-35 -51 -82 -72 -143 -72c-103 0 -138 81 -138 148v381l-48 27v7l118 33h32v-465c0 -56 29 -93 84 -93s95 50 95 108v383l-48 27v7l119 33h32v-541l69 -38v-7h-172z" />
    <glyph glyph-name="udieresis" unicode="&#xfc;" horiz-adv-x="545" 
d="M429 697c0 -23 -17 -42 -38 -42s-38 19 -38 42s17 41 38 41s38 -18 38 -41zM210 697c0 -23 -17 -42 -38 -42s-38 19 -38 42s17 41 38 41s38 -18 38 -41zM359 0v62c-35 -51 -82 -72 -143 -72c-103 0 -138 81 -138 148v381l-48 27v7l118 33h32v-465c0 -56 29 -93 84 -93
s95 50 95 108v383l-48 27v7l119 33h32v-541l69 -38v-7h-172z" />
    <glyph glyph-name="yacute" unicode="&#xfd;" horiz-adv-x="537" 
d="M265 639l82 132l58 -48l-132 -87zM374 586h157v-7l-71 -38l-202 -653c-28 -97 -60 -126 -123 -126c-35 0 -61 4 -80 9v100h10l66 -86c45 0 74 11 123 215h-9l-169 541l-71 38v7h224v-7l-49 -38l119 -394l124 394l-49 38v7z" />
    <glyph glyph-name="ydieresis" unicode="&#xff;" horiz-adv-x="537" 
d="M417 697c0 -23 -17 -42 -38 -42s-38 19 -38 42s17 41 38 41s38 -18 38 -41zM197 697c0 -23 -17 -42 -38 -42s-38 19 -38 42s17 41 38 41s38 -18 38 -41zM374 586h157v-7l-71 -38l-202 -653c-28 -97 -60 -126 -123 -126c-35 0 -61 4 -80 9v100h10l66 -86
c45 0 74 11 123 215h-9l-169 541l-71 38v7h224v-7l-49 -38l119 -394l124 394l-49 38v7z" />
    <glyph glyph-name="zcaron" unicode="&#x17e;" horiz-adv-x="438" 
d="M92 750l6 3l125 -58l125 58l7 -3l-105 -112h-53zM421 154h7l-45 -154h-373l291 548h-195l-61 -116h-7l22 154h366l-291 -548h203z" />
    </font>
</defs>
</svg>
